<?xml version="1.0" encoding="UTF-8" standalone="no"?>
<svg xmlns="http://www.w3.org/2000/svg" width="48" height="48" viewBox="0 0 12.7 12.7">
  <circle cx="6.35" cy="6.35" r="5.55" fill="#294172" />
  <path d="M 3.3,4.2 C 3.1,4.9 3.0,5.6 3.0,6.3 c 0,2.6 1.5,4.8 3.7,5.9 C 4.5,11.9 2.8,10.3 2.8,8.4 2.8,6.3 3.3,4.2 3.3,4.2 Z" fill="#3c6eb4"/>
  <path d="M 9.4,4.2 C 9.6,4.9 9.7,5.6 9.7,6.3 c 0,2.6 -1.5,4.8 -3.7,5.9 C 8.2,11.9 9.9,10.3 9.9,8.4 9.9,6.3 9.4,4.2 9.4,4.2 Z" fill="#3c6eb4"/>
  <rect x="4.5" y="2.1" width="3.7" height="1.5" rx="0.7" ry="0.7" fill="#fff" />
  <circle cx="6.35" cy="6.35" r="2.5" fill="#fff" />
  <path d="M 5.1,4.5 H 7.7 C 8.0,4.5 8.3,4.8 8.3,5.1 V 6.3 C 8.3,7.4 7.4,8.3 6.3,8.3 5.2,8.3 4.3,7.4 4.3,6.3 V 5.1 C 4.3,4.8 4.6,4.5 4.9,4.5 Z" fill="#3c6eb4"/>
</svg> 